<svg width="28" height="25" fill="none" xmlns="http://www.w3.org/2000/svg"><path d="m13.9 4.447-.663.659a.906.906 0 0 0 .663.291c.25 0 .49-.105.663-.291l-.663-.66Zm-6.132 13.84a.9.9 0 0 0-1.294.13.972.972 0 0 0 .125 1.338l1.17-1.468Zm-5.713-3.814c.243.46.802.63 1.248.378a.967.967 0 0 0 .366-1.29l-1.614.912Zm.5-5.417c0-2.726 1.49-5.012 3.525-5.973 1.977-.934 4.633-.687 7.157 2.023l1.326-1.318C11.568.572 8.092.042 5.316 1.354 2.598 2.637.716 5.618.716 9.056h1.84Zm7.05 13.133c.627.512 1.302 1.058 1.985 1.47.684.413 1.463.748 2.31.748v-1.9c-.38 0-.826-.154-1.381-.489-.555-.335-1.13-.796-1.776-1.322L9.604 22.19Zm8.591 0c1.75-1.425 3.986-3.058 5.74-5.1 1.787-2.078 3.149-4.655 3.149-8.033h-1.84c0 2.785-1.103 4.931-2.684 6.77-1.612 1.877-3.645 3.356-5.504 4.87l1.14 1.493Zm8.889-13.133c0-3.438-1.882-6.419-4.6-7.702-2.776-1.312-6.253-.782-9.248 2.434l1.326 1.318c2.524-2.71 5.18-2.957 7.157-2.023 2.035.96 3.525 3.247 3.525 5.973h1.84Zm-10.028 11.64c-.645.526-1.22.987-1.775 1.322-.555.335-1.002.488-1.382.488v1.901c.847 0 1.627-.335 2.31-.748.683-.412 1.358-.958 1.986-1.47l-1.139-1.493Zm-6.314 0c-.976-.795-1.968-1.553-2.975-2.409L6.6 19.755c1.019.866 2.094 1.692 3.005 2.434l1.14-1.493ZM3.67 13.561a9.433 9.433 0 0 1-1.114-4.505H.715c0 2.075.515 3.86 1.34 5.417l1.614-.912Z" fill="#1C274C"/></svg>