<svg width="21" height="31" fill="none" xmlns="http://www.w3.org/2000/svg"><path d="M17.05 8.32a6.923 6.923 0 1 1-13.846 0 6.923 6.923 0 0 1 13.845 0ZM16.127 17.907c.566.613 1.266 1.588 1.87 2.666.62 1.11 1.095 2.248 1.245 3.148.186 1.117.022 1.999-.356 2.707-.383.718-1.02 1.325-1.882 1.817-1.745.998-4.278 1.452-6.877 1.452-2.6 0-5.132-.454-6.877-1.452-.862-.492-1.5-1.099-1.882-1.817-.378-.708-.542-1.59-.356-2.707l15.114-5.814Zm0 0h-.007a.409.409 0 0 0-.121.025 11.177 11.177 0 0 1-11.744 0 .409.409 0 0 0-.121-.025h-.007c-.566.613-1.266 1.588-1.87 2.666-.62 1.11-1.095 2.248-1.245 3.148l15.114-5.814Zm-.038-.041Z" stroke="#1C274C" stroke-width="1.7"/></svg>