<svg width="25" height="25" fill="none" xmlns="http://www.w3.org/2000/svg"><path d="M12.085 2.987c-5.5 0-10 4.5-10 10 0 4.2 2.6 7.9 6.4 9.3-.1-.8-.2-2 0-2.9.2-.8 1.2-5 1.2-5s-.3-.6-.3-1.5c0-1.4.8-2.4 1.8-2.4.9 0 1.3.6 1.3 1.4 0 .9-.5 2.1-.8 3.3-.2 1 .5 1.8 1.5 1.8 1.8 0 3.1-1.9 3.1-4.6 0-2.4-1.7-4.1-4.2-4.1-2.8 0-4.5 2.1-4.5 4.3 0 .9.3 1.8.7 2.3.1.1.1.2.1.3-.1.3-.2 1-.3 1.1 0 .2-.1.2-.3.1-1.2-.6-2-2.4-2-3.9 0-3.2 2.3-6.1 6.6-6.1 3.5 0 6.2 2.5 6.2 5.8 0 3.4-2.2 6.2-5.2 6.2-1 0-2-.5-2.3-1.1 0 0-.5 1.9-.6 2.4-.2.9-.8 2-1.2 2.6.8.5 1.8.7 2.8.7 5.5 0 10-4.5 10-10s-4.5-10-10-10Z" fill="#3D5D68"/></svg>