<svg width="24" height="25" fill="none" xmlns="http://www.w3.org/2000/svg"><path d="M16.88 21.96h-.07C10.18 20.96 4 14.8 3 8.17a.47.47 0 0 1 .13-.42l3.59-3.66a.52.52 0 0 1 .593-.071.47.47 0 0 1 .157.141l3.2 4.24a.5.5 0 0 1-.05.66l-1.73 1.68a7.21 7.21 0 0 0 5.36 5.37l1.64-1.76a.49.49 0 0 1 .67-.06l4.24 3.17a.5.5 0 0 1 .05.76l-3.62 3.62a.5.5 0 0 1-.35.12ZM4 8.27a16.43 16.43 0 0 0 12.71 12.69l3-3-3.43-2.58-1.48 1.58a.51.51 0 0 1-.44.16 8.22 8.22 0 0 1-6.5-6.51.49.49 0 0 1 .14-.43l1.61-1.56L7 5.2 4 8.27Z" fill="#fff"/><path d="M16.88 21.96h-.07C10.18 20.96 4 14.8 3 8.17a.47.47 0 0 1 .13-.42l3.59-3.66a.52.52 0 0 1 .593-.071.47.47 0 0 1 .157.141l3.2 4.24a.5.5 0 0 1-.05.66l-1.73 1.68a7.21 7.21 0 0 0 5.36 5.37l1.64-1.76a.49.49 0 0 1 .67-.06l4.24 3.17a.5.5 0 0 1 .05.76l-3.62 3.62a.5.5 0 0 1-.35.12ZM4 8.27a16.43 16.43 0 0 0 12.71 12.69l3-3-3.43-2.58-1.48 1.58a.51.51 0 0 1-.44.16 8.22 8.22 0 0 1-6.5-6.51.49.49 0 0 1 .14-.43l1.61-1.56L7 5.2 4 8.27Z" fill="#fff"/><path d="M16.88 21.96h-.07C10.18 20.96 4 14.8 3 8.17a.47.47 0 0 1 .13-.42l3.59-3.66a.52.52 0 0 1 .593-.071.47.47 0 0 1 .157.141l3.2 4.24a.5.5 0 0 1-.05.66l-1.73 1.68a7.21 7.21 0 0 0 5.36 5.37l1.64-1.76a.49.49 0 0 1 .67-.06l4.24 3.17a.5.5 0 0 1 .05.76l-3.62 3.62a.5.5 0 0 1-.35.12ZM4 8.27a16.43 16.43 0 0 0 12.71 12.69l3-3-3.43-2.58-1.48 1.58a.51.51 0 0 1-.44.16 8.22 8.22 0 0 1-6.5-6.51.49.49 0 0 1 .14-.43l1.61-1.56L7 5.2 4 8.27Z" stroke="#fff" stroke-width=".5"/><path d="M16.88 21.96h-.07C10.18 20.96 4 14.8 3 8.17a.47.47 0 0 1 .13-.42l3.59-3.66a.52.52 0 0 1 .593-.071.47.47 0 0 1 .157.141l3.2 4.24a.5.5 0 0 1-.05.66l-1.73 1.68a7.21 7.21 0 0 0 5.36 5.37l1.64-1.76a.49.49 0 0 1 .67-.06l4.24 3.17a.5.5 0 0 1 .05.76l-3.62 3.62a.5.5 0 0 1-.35.12ZM4 8.27a16.43 16.43 0 0 0 12.71 12.69l3-3-3.43-2.58-1.48 1.58a.51.51 0 0 1-.44.16 8.22 8.22 0 0 1-6.5-6.51.49.49 0 0 1 .14-.43l1.61-1.56L7 5.2 4 8.27Z" stroke="#fff" stroke-width=".5"/></svg>