<svg width="25" height="25" fill="none" xmlns="http://www.w3.org/2000/svg"><path d="M21.985 8.887c0-1.1-.2-1.8-.5-2.4-.3-.7-.6-1.2-1.2-1.8-.6-.6-1.1-.9-1.8-1.2-.6-.2-1.4-.4-2.4-.5h-4c-2.7 0-3.1 0-4.1.1-1.1 0-1.8.2-2.4.5-.7.2-1.3.5-1.8 1.1-.6.5-.9 1.1-1.2 1.8-.2.6-.4 1.3-.4 2.4-.1 1-.1 1.4-.1 4.1 0 2.7 0 3.1.1 4.1 0 1.1.2 1.8.5 2.4.3.7.6 1.2 1.2 1.8.6.6 1.1.9 1.8 1.2.6.2 1.4.4 2.4.5 1.1 0 1.4.1 4.1.1 2.7 0 3.1 0 4.1-.1 1.1 0 1.8-.2 2.4-.5.7-.3 1.2-.6 1.8-1.2.6-.6.9-1.1 1.2-1.8.2-.6.4-1.4.5-2.4 0-1.1.1-1.4.1-4.1-.2-2.7-.2-3.1-.3-4.1Zm-1.8 8.1c0 1-.2 1.5-.3 1.9-.2.5-.4.8-.7 1.1-.3.3-.7.6-1.1.7-.4.1-.9.3-1.9.3-1.1 0-1.4.1-4 .1s-3 0-4-.1c-1 0-1.5-.2-1.9-.3-.6-.1-.9-.3-1.2-.7-.3-.3-.6-.7-.7-1.1-.2-.4-.4-.9-.4-1.9 0-1.1-.1-1.4-.1-4 0-2.7 0-3 .1-4 0-1 .2-1.5.3-1.9.2-.5.4-.8.8-1.1.3-.3.7-.6 1.1-.7.4-.2.9-.4 1.9-.4 1.1 0 1.4-.1 4-.1s3 0 4 .1c1 0 1.5.2 1.9.3.5.2.8.4 1.1.8.3.3.6.7.7 1.1.1.4.3.9.3 1.9 0 1.1.1 1.4.1 4 .1 2.7.1 3 0 4Z" fill="#3D5D68"/><path d="M12.085 7.887c-2.8 0-5.1 2.3-5.1 5.1s2.3 5.1 5.1 5.1 5.1-2.3 5.1-5.1-2.3-5.1-5.1-5.1Zm0 8.4c-1.8 0-3.3-1.5-3.3-3.3 0-1.8 1.5-3.3 3.3-3.3 1.8 0 3.3 1.5 3.3 3.3 0 1.8-1.5 3.3-3.3 3.3ZM17.385 8.887a1.2 1.2 0 1 0 0-2.4 1.2 1.2 0 0 0 0 2.4Z" fill="#3D5D68"/></svg>