<svg width="170" height="37" fill="none" xmlns="http://www.w3.org/2000/svg"><g clip-path="url('#clip0_1_709')" fill="#2C454D"><path d="M14.689.952H.26L0 5.322h.51c.155-2.23 1.003-3.056 3.226-3.03h2.37v14.06c0 1.75-.423 2.27-1.818 2.325l-.407.018v.502h7.224v-.5l-.42-.02c-1.42-.054-1.816-.574-1.816-2.324V2.293h2.343c2.223-.027 3.097.798 3.228 3.028h.508l-.26-4.369h.001ZM33.66 18.676c-1.184 0-1.658-.382-3.448-2.762l-4.056-5.525c1.316-.411 1.923-.712 2.58-1.313A4.813 4.813 0 0 0 30.238 5.6c0-1.586-.816-3.09-2.107-3.883-1-.575-1.975-.767-4.186-.767h-7.099v.502l.384.018c1.395.055 1.817.575 1.817 2.326v12.556c0 1.75-.42 2.272-1.817 2.326l-.384.018v.502h7.086v-.503l-.304-.017c-1.421-.054-1.817-.574-1.817-2.326v-5.716h1.369l5.103 7a3.745 3.745 0 0 0 3.024 1.56h2.722v-.52h-.369ZM22.285 9.677h-.474V2.373c.711-.246 1.053-.3 1.606-.3 2.21 0 3.738 1.505 3.738 3.72 0 2.435-1.843 3.884-4.871 3.884h.001Z"/><path d="M48.502 14.508c-1.065 2.652-2.127 3.403-4.883 3.458h-3.16c-1.29.027-1.447-.22-1.447-1.97v-5.854h4.45c1.514.028 2.048.712 2.026 2.542h.476V6.325h-.479c-.004 1.904-.563 2.613-2.023 2.586h-4.45V2.018h4.082c2.708-.054 3.596.606 3.903 2.974.133-.074.283-.127.452-.154l-.186-2.92c-.035-.543-.468-.967-.992-.967H34.034v.5l.398.019c1.422.054 1.816.574 1.816 2.325v12.557c0 1.75-.394 2.271-1.816 2.326l-.58.027v.492h12.902c.426 0 .804-.282.942-.7l1.23-3.762a1.328 1.328 0 0 1-.42-.225l-.004-.002ZM62.298.951v.504l.35.016c1.396.055 1.818.575 1.818 2.326v9.765l-9.412-11.41a3.256 3.256 0 0 0-2.51-1.2h-3.538v.5c1.358.062 1.712.293 3.242 1.934v12.966c0 1.75-.42 2.271-1.817 2.326l-.356.016v.503h5.619v-.503l-.34-.016c-1.395-.055-1.817-.575-1.817-2.326V5l11.795 14.197h.422V3.795c0-1.75.422-2.27 1.817-2.325l.296-.014V.951h-5.57.001ZM82.231 2.127C80.52 1.225 79.098.951 75.858.951h-6.845v.502l.368.017c1.395.054 1.817.574 1.817 2.325v12.557c0 1.75-.42 2.271-1.817 2.326l-.381.018v.501h6.778c1.976 0 2.95-.054 3.74-.191 1.659-.301 3.107-.903 4.16-1.723 1.976-1.533 3.108-4.132 3.108-7.058 0-3.693-1.58-6.51-4.555-8.096v-.002ZM76.49 18.13c-.896 0-1.45-.108-2.529-.438V2.428c.921-.274 1.475-.355 2.37-.355 2.448 0 4.028.684 5.424 2.325 1.29 1.533 1.948 3.447 1.948 5.69 0 4.815-2.896 8.043-7.215 8.043h.002ZM107.559 19.054l-.442.02v.5h7.208v-.502l-.367-.017c-1.395-.054-1.817-.574-1.817-2.324V4.173c0-1.75.422-2.27 1.817-2.324l.38-.018V1.33h-7.19v.502l.413.018c1.396.055 1.817.602 1.817 2.324v5.498h-7.873V4.173c0-1.722.421-2.27 1.817-2.324l.428-.02v-.5h-7.165v.504l.34.016c1.394.055 1.816.574 1.816 2.324v12.555c0 1.75-.422 2.27-1.817 2.324l-.434.022v.498h7.27v-.5l-.437-.02c-1.396-.054-1.816-.601-1.816-2.324v-5.827h7.872v5.827c0 1.723-.42 2.27-1.817 2.324l-.003.002ZM131.836 10.438c0 2.654-.868 5.034-2.502 6.784-1.58 1.723-3.503 2.545-5.951 2.545-4.765 0-8.347-3.994-8.347-9.329 0-5.334 3.582-9.3 8.347-9.3s8.453 3.966 8.453 9.299v.002Zm-13.719.028c0 4.869 2.133 8.233 5.24 8.233 3.266 0 5.398-3.283 5.398-8.262 0-4.98-2.186-8.233-5.398-8.233-3.212 0-5.24 3.337-5.24 8.262ZM151.855 16.73V4.173c0-1.75.42-2.27 1.817-2.325l.341-.015v-.504h-2.758c-1.315 0-2.503.809-3.03 2.062l-4.822 11.479-5.092-11.538c-.539-1.22-1.713-2.003-3.006-2.003h-2.707v.504l.352.016c1.395.055 1.817.574 1.817 2.326V16.73c0 1.75-.42 2.272-1.817 2.326l-.378.018v.502h5.721v-.502l-.419-.018c-1.395-.054-1.817-.574-1.817-2.326V5.104l6.345 14.471h.421l6.266-14.635v11.79c0 1.75-.42 2.271-1.816 2.325l-.294.017v.503h7.059v-.503l-.368-.018c-1.395-.054-1.817-.574-1.817-2.326l.002.002ZM169.558 15.002c-1.05 2.557-2.121 3.289-4.835 3.342h-3.16c-1.29.027-1.447-.22-1.447-1.97V10.52h4.449c1.512.028 2.046.71 2.027 2.533h.475V6.754h-.478c-.016 1.864-.576 2.56-2.024 2.535h-4.449V2.396h4.081c2.689-.053 3.583.597 3.896 2.921a1.46 1.46 0 0 1 .46-.09l-.185-2.884c-.037-.57-.493-1.014-1.043-1.014h-12.25v.499l.459.021c1.422.055 1.816.574 1.816 2.326V16.73c0 1.75-.394 2.272-1.816 2.326l-.38.018v.502h12.664c.448 0 .847-.296.991-.738L170 15.19a1.319 1.319 0 0 1-.442-.185v-.002ZM23.08 27.432h1.482v2.972h2.873v-2.972h1.482v7.592h-1.482V31.68h-2.873v3.344h-1.483v-7.592ZM32.584 31.243c0-2.273 1.37-3.96 3.526-3.96 2.156 0 3.516 1.687 3.516 3.96 0 2.273-1.36 3.95-3.516 3.95-2.156 0-3.526-1.677-3.526-3.95Zm5.53 0c0-1.519-.654-2.697-1.992-2.697s-2.024 1.178-2.024 2.697c0 1.519.686 2.687 2.024 2.687s1.993-1.179 1.993-2.687ZM43.235 32.582v-5.15h1.482v5.15c0 .786.379 1.337 1.37 1.337.94 0 1.381-.572 1.381-1.358v-5.13h1.482v5.151c0 1.624-.96 2.569-2.83 2.569-1.871 0-2.883-.923-2.883-2.569h-.002ZM52.597 32.677h1.452c.102.913.603 1.274 1.645 1.274.756 0 1.421-.277 1.421-.976 0-.744-.695-.892-1.81-1.158-1.307-.308-2.504-.67-2.504-2.252 0-1.497 1.175-2.272 2.8-2.272 1.625 0 2.708.838 2.82 2.368h-1.42c-.082-.765-.655-1.147-1.412-1.147-.797 0-1.318.35-1.318.891 0 .617.51.797 1.595 1.042 1.502.34 2.728.711 2.728 2.346 0 1.54-1.195 2.4-2.84 2.4-1.983 0-3.107-.913-3.158-2.516h.001ZM62.347 27.432h5.377v1.295H63.83v1.698h3.414v1.264H63.83v2.049h3.924v1.284h-5.407V27.43v.002ZM75.799 31.243c0-2.273 1.37-3.96 3.526-3.96 2.155 0 3.516 1.687 3.516 3.96 0 2.273-1.36 3.95-3.516 3.95-2.156 0-3.526-1.677-3.526-3.95Zm5.529 0c0-1.519-.655-2.697-1.993-2.697s-2.024 1.178-2.024 2.697c0 1.519.685 2.687 2.024 2.687 1.338 0 1.993-1.179 1.993-2.687ZM86.51 27.432h5.233v1.306H87.99v1.827h3.179v1.316H87.99v3.143H86.51v-7.592ZM99.643 27.432h5.877v1.295h-2.198v6.297h-1.482v-6.297h-2.198v-1.295h.001ZM109.129 27.432h3.353c1.411 0 2.351.85 2.351 2.113 0 .891-.399 1.571-1.34 1.837v.032c.675.2 1.022.604 1.114 1.53.102 1.072.061 1.89.317 2.006v.074h-1.421c-.185-.085-.205-.934-.266-1.751-.061-.829-.511-1.296-1.432-1.296h-1.195v3.049h-1.483v-7.593l.002-.001Zm1.481 3.355h1.574c.807 0 1.206-.435 1.206-1.041 0-.606-.379-1.073-1.166-1.073h-1.614v2.114ZM118.644 27.432h5.376v1.295h-3.894v1.698h3.414v1.264h-3.414v2.049h3.925v1.284h-5.407V27.43v.002ZM127.833 27.432h1.502l2.433 4.237c.235.414.51 1.063.51 1.063h.021s-.041-.786-.041-1.317v-3.982h1.462v7.593h-1.432l-2.494-4.194c-.236-.403-.521-1.052-.521-1.052h-.02s.04.797.04 1.327v3.919h-1.462v-7.593l.002-.001ZM137.706 27.432h2.851c1.952 0 3.209 1.635 3.209 3.876 0 1.232-.399 2.315-1.166 2.985-.541.467-1.246.733-2.167.733h-2.729v-7.593l.002-.001Zm2.627 6.264c1.39 0 1.931-.881 1.931-2.39 0-1.508-.634-2.558-1.891-2.558h-1.185v4.948h1.145ZM147.108 32.677h1.452c.102.913.604 1.274 1.645 1.274.756 0 1.421-.277 1.421-.976 0-.744-.695-.892-1.809-1.158-1.308-.308-2.505-.67-2.505-2.252 0-1.497 1.175-2.272 2.8-2.272 1.625 0 2.709.838 2.821 2.368h-1.422c-.081-.765-.654-1.147-1.411-1.147-.797 0-1.318.35-1.318.891 0 .617.511.797 1.595 1.042 1.502.34 2.729.711 2.729 2.346 0 1.54-1.196 2.4-2.841 2.4-1.983 0-3.107-.913-3.158-2.516h.001Z"/></g><defs><clipPath id="clip0_1_709"><path fill="#fff" transform="translate(0 .95)" d="M0 0h170v36H0z"/></clipPath></defs></svg>