<svg width="234" height="50" fill="none" xmlns="http://www.w3.org/2000/svg"><g clip-path="url('#clip0_1_109')" fill="#2C454D"><path d="M20.533.05H.757L.4 5.995h.698c.213-3.034 1.376-4.16 4.422-4.122h3.248V21.01c0 2.382-.578 3.09-2.49 3.163l-.559.025v.683h9.901v-.68l-.574-.028c-1.948-.073-2.49-.781-2.49-3.163V1.874h3.212c3.046-.037 4.244 1.086 4.424 4.122h.696L20.53.049h.002ZM46.535 24.174c-1.623 0-2.273-.52-4.727-3.76l-5.559-7.52c1.804-.56 2.636-.969 3.537-1.787a6.53 6.53 0 0 0 2.058-4.73c0-2.159-1.119-4.205-2.887-5.285C37.585.31 36.249.049 33.219.049h-9.73v.683l.527.024c1.912.074 2.49.782 2.49 3.166v17.09c0 2.383-.576 3.092-2.49 3.166l-.527.025v.683h9.712V24.2l-.417-.023c-1.948-.074-2.49-.781-2.49-3.165V13.23h1.876l6.994 9.528c.983 1.339 2.516 2.125 4.145 2.125h3.73v-.708h-.504v-.002ZM30.944 11.925h-.65v-9.94c.975-.336 1.443-.41 2.201-.41 3.03 0 5.124 2.049 5.124 5.064 0 3.314-2.526 5.286-6.677 5.286h.002Z"/><path d="M66.877 18.501c-1.46 3.61-2.915 4.632-6.693 4.706h-4.33c-1.769.037-1.984-.298-1.984-2.68V12.56h6.099c2.075.037 2.807.969 2.777 3.46h.652V7.362h-.656c-.006 2.592-.772 3.556-2.773 3.52h-6.1V1.5h5.595c3.712-.074 4.929.825 5.35 4.048a1.9 1.9 0 0 1 .62-.21l-.256-3.976C65.13.625 64.536.05 63.818.05h-16.77v.68l.544.025c1.95.074 2.49.782 2.49 3.166v17.09c0 2.382-.54 3.092-2.49 3.166l-.794.037v.67H64.48c.584 0 1.103-.384 1.292-.954l1.685-5.12a1.826 1.826 0 0 1-.574-.306l-.006-.002ZM85.785.049v.685l.48.022c1.913.074 2.49.782 2.49 3.166v13.292L75.857 1.682a4.474 4.474 0 0 0-3.44-1.633h-4.85v.68c1.863.085 2.347.4 4.445 2.633v17.649c0 2.381-.577 3.091-2.49 3.165l-.49.023v.685h7.703v-.685l-.467-.023c-1.912-.074-2.49-.781-2.49-3.165V5.559l16.167 19.325h.578V3.92c0-2.382.578-3.09 2.49-3.166l.405-.018V.049h-7.634.002ZM113.105 1.65C110.758.42 108.811.048 104.371.048h-9.383v.683l.505.022c1.912.074 2.49.782 2.49 3.166v17.09c0 2.382-.577 3.092-2.49 3.166l-.523.025v.683h9.291c2.707 0 4.043-.074 5.126-.262 2.273-.409 4.258-1.227 5.702-2.344 2.707-2.086 4.258-5.624 4.258-9.606 0-5.027-2.165-8.861-6.242-11.02v-.003Zm-7.869 21.781c-1.228 0-1.986-.148-3.465-.596V2.058c1.262-.372 2.021-.483 3.248-.483 3.355 0 5.52.932 7.434 3.166 1.769 2.085 2.67 4.691 2.67 7.744 0 6.553-3.97 10.947-9.889 10.947h.002ZM147.82 24.688l-.606.027v.68h9.879v-.682l-.503-.023c-1.912-.074-2.49-.781-2.49-3.163V4.434c0-2.382.578-3.09 2.49-3.163l.52-.025V.563h-9.854v.683l.566.025c1.914.074 2.49.818 2.49 3.163v7.483h-10.79V4.434c0-2.345.576-3.09 2.49-3.163l.586-.027v-.68h-9.819v.684l.465.023c1.912.074 2.49.781 2.49 3.163v17.089c0 2.382-.578 3.09-2.49 3.163l-.596.03v.678h9.964v-.681l-.598-.027c-1.914-.074-2.49-.818-2.49-3.163V13.59h10.79v7.932c0 2.345-.576 3.09-2.49 3.163l-.004.002ZM181.093 12.962c0 3.612-1.19 6.852-3.429 9.233-2.165 2.345-4.801 3.464-8.157 3.464-6.531 0-11.44-5.436-11.44-12.697 0-7.26 4.909-12.66 11.44-12.66 6.532 0 11.586 5.4 11.586 12.658v.002Zm-18.803.037c0 6.627 2.923 11.206 7.182 11.206 4.475 0 7.398-4.468 7.398-11.245 0-6.777-2.996-11.206-7.398-11.206-4.403 0-7.182 4.542-7.182 11.245ZM208.531 21.525V4.435c0-2.383.576-3.09 2.49-3.166l.468-.02V.562h-3.78c-1.802 0-3.431 1.1-4.153 2.806l-6.609 15.624-6.98-15.705c-.738-1.66-2.347-2.725-4.119-2.725h-3.71v.685l.482.023c1.912.074 2.49.781 2.49 3.165v17.09c0 2.383-.576 3.092-2.49 3.166l-.518.025v.683h7.841v-.683l-.574-.024c-1.912-.075-2.49-.782-2.49-3.166V5.7l8.696 19.697h.576l8.589-19.921v16.048c0 2.382-.576 3.091-2.49 3.165l-.402.023v.685h9.675v-.685l-.504-.025c-1.912-.074-2.49-.781-2.49-3.165l.002.002ZM232.794 19.174c-1.439 3.48-2.907 4.476-6.627 4.548h-4.33c-1.769.037-1.984-.299-1.984-2.68v-7.969h6.099c2.071.037 2.803.967 2.777 3.447h.652V7.947h-.656c-.022 2.536-.79 3.485-2.773 3.45h-6.099V2.015h5.594c3.685-.072 4.911.813 5.339 3.976.19-.07.399-.115.63-.123l-.253-3.925c-.05-.777-.676-1.38-1.429-1.38h-16.789v.679l.628.029c1.949.074 2.49.781 2.49 3.165v17.09c0 2.383-.541 3.092-2.49 3.166l-.521.025v.683h17.358c.614 0 1.16-.403 1.357-1.004l1.633-4.967a1.811 1.811 0 0 1-.606-.253v-.002ZM32.032 36.092h2.032v4.045h3.938v-4.045h2.031v10.333h-2.031v-4.551h-3.938v4.551h-2.032V36.092ZM45.06 41.279c0-3.094 1.878-5.391 4.832-5.391 2.955 0 4.82 2.297 4.82 5.39 0 3.095-1.865 5.378-4.82 5.378-2.954 0-4.832-2.283-4.832-5.377Zm7.58 0c0-2.067-.898-3.672-2.732-3.672s-2.773 1.605-2.773 3.672.94 3.657 2.773 3.657c1.834 0 2.732-1.604 2.732-3.657ZM59.658 43.101v-7.01h2.031v7.01c0 1.07.519 1.82 1.878 1.82 1.288 0 1.892-.779 1.892-1.848v-6.981h2.032v7.01c0 2.21-1.316 3.496-3.88 3.496s-3.951-1.257-3.951-3.497h-.002ZM72.489 43.231h1.99c.14 1.242.827 1.734 2.255 1.734 1.036 0 1.948-.376 1.948-1.329 0-1.012-.954-1.213-2.48-1.575-1.793-.42-3.434-.911-3.434-3.065 0-2.038 1.611-3.094 3.838-3.094 2.227 0 3.712 1.142 3.866 3.224h-1.948c-.112-1.041-.897-1.562-1.934-1.562-1.093 0-1.806.477-1.806 1.214 0 .84.7 1.084 2.185 1.417 2.06.463 3.74.969 3.74 3.194 0 2.096-1.639 3.267-3.894 3.267-2.717 0-4.258-1.243-4.328-3.425h.002ZM85.853 36.092h7.369v1.762h-5.337v2.312h4.679v1.72h-4.68v2.789h5.38v1.748h-7.411V36.09v.003ZM104.289 41.279c0-3.094 1.878-5.391 4.833-5.391 2.954 0 4.818 2.297 4.818 5.39 0 3.095-1.864 5.378-4.818 5.378-2.955 0-4.833-2.283-4.833-5.377Zm7.578 0c0-2.067-.897-3.672-2.732-3.672-1.834 0-2.773 1.605-2.773 3.672s.939 3.657 2.773 3.657c1.835 0 2.732-1.604 2.732-3.657ZM118.969 36.092h7.173v1.777H121v2.486h4.356v1.792H121v4.278h-2.031V36.092ZM136.97 36.092h8.055v1.762h-3.013v8.571h-2.031v-8.57h-3.013v-1.763h.002ZM149.971 36.092h4.595c1.934 0 3.222 1.156 3.222 2.875 0 1.214-.546 2.14-1.836 2.501v.043c.925.274 1.402.823 1.527 2.082.14 1.46.084 2.573.435 2.732v.1h-1.948c-.253-.115-.281-1.27-.365-2.384-.084-1.127-.7-1.762-1.962-1.762h-1.638v4.148h-2.032V36.094l.002-.002Zm2.03 4.566h2.157c1.106 0 1.653-.593 1.653-1.417 0-.825-.519-1.46-1.597-1.46h-2.213v2.877ZM163.012 36.092h7.369v1.762h-5.337v2.312h4.679v1.72h-4.679v2.789h5.379v1.748h-7.411V36.09v.003ZM175.606 36.092h2.06l3.333 5.767c.323.564.7 1.446.7 1.446h.028s-.056-1.07-.056-1.791v-5.42h2.004v10.333h-1.962l-3.419-5.708c-.323-.549-.714-1.431-.714-1.431h-.028s.056 1.084.056 1.806v5.333h-2.004V36.094l.002-.002ZM189.138 36.092h3.907c2.676 0 4.399 2.225 4.399 5.276 0 1.676-.547 3.15-1.597 4.062-.742.635-1.709.997-2.971.997h-3.74V36.094l.002-.002Zm3.6 8.525c1.906 0 2.648-1.199 2.648-3.252 0-2.052-.869-3.482-2.592-3.482h-1.625v6.734h1.569ZM202.025 43.231h1.99c.139 1.242.827 1.734 2.254 1.734 1.037 0 1.948-.376 1.948-1.329 0-1.012-.953-1.213-2.48-1.575-1.792-.42-3.433-.911-3.433-3.065 0-2.038 1.611-3.094 3.838-3.094 2.227 0 3.712 1.142 3.866 3.224h-1.948c-.112-1.041-.897-1.562-1.934-1.562-1.093 0-1.806.477-1.806 1.214 0 .84.699 1.084 2.185 1.417 2.059.463 3.74.969 3.74 3.194 0 2.096-1.639 3.267-3.894 3.267-2.717 0-4.258-1.243-4.328-3.425h.002Z"/></g><defs><clipPath id="clip0_1_109"><path fill="#fff" transform="translate(.4 .047)" d="M0 0h233v49H0z"/></clipPath></defs></svg>