<svg width="31" height="31" fill="none" xmlns="http://www.w3.org/2000/svg"><path d="M23.835 17.472a.637.637 0 0 0 .613-.475l2.5-10a.637.637 0 0 0-.613-.775h-18.4l-.35-2.05a.637.637 0 0 0-.613-.5H3.835a.625.625 0 0 0 0 1.25h2.562l2.438 11.875-2.95 5.925a.662.662 0 0 0 0 .613.625.625 0 0 0 .525.287h17.425a.625.625 0 0 0 0-1.25H7.447l2.4-4.9h13.988Zm1.675-10-2.163 8.75H9.986l-1.788-8.75H25.51ZM10.085 24.297a1.25 1.25 0 1 0 0 2.501 1.25 1.25 0 0 0 0-2.5Zm10 0a1.25 1.25 0 1 0 0 2.501 1.25 1.25 0 0 0 0-2.5Z" fill="#1E1E22" stroke="#1E1E22" stroke-width=".625"/></svg>